<?xml version="1.0" encoding="UTF-8" standalone="no"?>
<!-- Created with Inkscape (http://www.inkscape.org/) -->

<svg
   xmlns:dc="http://purl.org/dc/elements/1.1/"
   xmlns:cc="http://creativecommons.org/ns#"
   xmlns:rdf="http://www.w3.org/1999/02/22-rdf-syntax-ns#"
   xmlns:svg="http://www.w3.org/2000/svg"
   xmlns="http://www.w3.org/2000/svg"
   xmlns:sodipodi="http://sodipodi.sourceforge.net/DTD/sodipodi-0.dtd"
   xmlns:inkscape="http://www.inkscape.org/namespaces/inkscape"
   width="32"
   height="32"
   id="svg2"
   version="1.1"
   inkscape:version="0.91 r13725"
   sodipodi:docname="favicon.svg"
   inkscape:export-filename="/home/denys/projects/scharwerk.design/favicon.png"
   inkscape:export-xdpi="90"
   inkscape:export-ydpi="90">
  <defs
     id="defs4" />
  <sodipodi:namedview
     id="base"
     pagecolor="#607d8b"
     bordercolor="#666666"
     borderopacity="1.0"
     inkscape:pageopacity="1"
     inkscape:pageshadow="2"
     inkscape:zoom="11.313709"
     inkscape:cx="22.047543"
     inkscape:cy="12.913271"
     inkscape:document-units="px"
     inkscape:current-layer="layer1"
     showgrid="true"
     inkscape:window-width="1855"
     inkscape:window-height="1056"
     inkscape:window-x="65"
     inkscape:window-y="24"
     inkscape:window-maximized="1"
     inkscape:snap-global="true"
     inkscape:snap-grids="true"
     inkscape:snap-bbox="false"
     inkscape:snap-to-guides="false"
     showguides="true"
     inkscape:guide-bbox="true"
     inkscape:snap-others="false"
     inkscape:snap-nodes="false">
    <inkscape:grid
       type="xygrid"
       id="grid2989"
       empspacing="5"
       visible="true"
       enabled="true"
       snapvisiblegridlinesonly="true" />
  </sodipodi:namedview>
  <metadata
     id="metadata7">
    <rdf:RDF>
      <cc:Work
         rdf:about="">
        <dc:format>image/svg+xml</dc:format>
        <dc:type
           rdf:resource="http://purl.org/dc/dcmitype/StillImage" />
        <dc:title />
      </cc:Work>
    </rdf:RDF>
  </metadata>
  <g
     inkscape:label="Layer 1"
     inkscape:groupmode="layer"
     id="layer1"
     transform="translate(0,-1020.3622)">
    <g
       style="font-size:28.98550797000000046px;font-style:normal;font-variant:normal;font-weight:normal;font-stretch:normal;line-height:125%;letter-spacing:0px;word-spacing:0px;fill:#ffffff;fill-opacity:1;stroke:none;font-family:PT Serif;-inkscape-font-specification:Sans"
       id="text2985"
       transform="matrix(1,0,0,1.0842833,0.4202894,-86.106576)">
      <path
         d="m 11.84058,1025.0723 7.507247,0 0,1.1015 c -0.212579,0.1546 -0.454125,0.3092 -0.724638,0.4637 -0.251225,0.1547 -0.734543,0.2947 -1.043705,0.3913 l 0.0039,16.4889 6.002321,0.018 0.0078,-16.4925 c -0.560408,-0.1353 -1.501757,-0.4443 -2.042799,-0.8694 l 0,-1.1015 8.028986,0 0,1.1015 c -0.599062,0.3865 -1.242244,0.6616 -1.99584,0.8355 l -0.0058,16.3965 c 0.386447,0.097 0.71659,0.2366 1.04512,0.3912 0.347798,0.1352 0.666638,0.2898 0.956522,0.4637 l 0,1.1015 -28.0000008,0 0,-1.1015 c 0.3091778,-0.1739 0.6473417,-0.3381 1.0144927,-0.4927 0.3671478,-0.1546 0.6426042,-0.1696 0.9904326,-0.2469 l -2e-7,-16.5103 c -0.7729487,-0.1546 -1.386569,-0.4312 -2.0049253,-0.837 l 0,-1.1015 8.0000002,0 0,1.1015 c -0.5713677,0.4726 -1.2399201,0.6432 -1.9961107,0.8508 l 0,16.4994 5.9996205,0 0,-16.5141 c -0.657017,-0.2126 -1.336854,-0.4856 -1.74264,-0.8334 l 0,-1.1015"
         style="font-weight:bold;-inkscape-font-specification:'PT Serif Bold';fill:#ffffff"
         id="path2992"
         inkscape:connector-curvature="0"
         sodipodi:nodetypes="cccccccccccccccccccscccccccccccc" />
    </g>
  </g>
</svg>
